{
    "asset" : {
        "generator" : "Khronos glTF Blender I/O v1.7.33",
        "version" : "2.0"
    },
    "extensionsUsed" : [
        "KHR_materials_clearcoat"
    ],
    "scene" : 0,
    "scenes" : [
        {
            "name" : "Scene",
            "nodes" : [
                0
            ]
        }
    ],
    "nodes" : [
        {
            "mesh" : 0,
            "name" : "Logo",
            "rotation" : [
                0.7071068286895752,
                0,
                0,
                0.7071068286895752
            ],
            "translation" : [
                0.0029146624729037285,
                0,
                0.005505681037902832
            ]
        }
    ],
    "materials" : [
        {
            "doubleSided" : true,
            "extensions" : {
                "KHR_materials_clearcoat" : {
                    "clearcoatFactor" : 1,
                    "clearcoatRoughnessFactor" : 0.0981818214058876
                }
            },
            "name" : "Material",
            "pbrMetallicRoughness" : {
                "roughnessFactor" : 0.2454545497894287
            }
        }
    ],
    "meshes" : [
        {
            "name" : "Vert",
            "primitives" : [
                {
                    "attributes" : {
                        "POSITION" : 0,
                        "NORMAL" : 1,
                        "TEXCOORD_0" : 2
                    },
                    "indices" : 3,
                    "material" : 0
                }
            ]
        }
    ],
    "accessors" : [
        {
            "bufferView" : 0,
            "componentType" : 5126,
            "count" : 5400,
            "max" : [
                1.597643256187439,
                0.17999999225139618,
                1.7724177837371826
            ],
            "min" : [
                -1.597643256187439,
                -0.17999999225139618,
                -1.856697916984558
            ],
            "type" : "VEC3"
        },
        {
            "bufferView" : 1,
            "componentType" : 5126,
            "count" : 5400,
            "type" : "VEC3"
        },
        {
            "bufferView" : 2,
            "componentType" : 5126,
            "count" : 5400,
            "type" : "VEC2"
        },
        {
            "bufferView" : 3,
            "componentType" : 5123,
            "count" : 8100,
            "type" : "SCALAR"
        }
    ],
    "bufferViews" : [
        {
            "buffer" : 0,
            "byteLength" : 64800,
            "byteOffset" : 0
        },
        {
            "buffer" : 0,
            "byteLength" : 64800,
            "byteOffset" : 64800
        },
        {
            "buffer" : 0,
            "byteLength" : 43200,
            "byteOffset" : 129600
        },
        {
            "buffer" : 0,
            "byteLength" : 16200,
            "byteOffset" : 172800
        }
    ],
    "buffers" : [
        {
            "byteLength" : 189000,
            "uri" : "Logo Animation.bin"
        }
    ]
}
